<svg xmlns="http://www.w3.org/2000/svg" viewBox="0 0 96 96">
  <defs>
    <linearGradient id="gate" x1="18" x2="78" y1="14" y2="82">
      <stop stop-color="#fff1a6"/>
      <stop offset=".46" stop-color="#72efa3"/>
      <stop offset="1" stop-color="#83c4ff"/>
    </linearGradient>
    <radialGradient id="glow" cx="68" cy="20" r="68" gradientUnits="userSpaceOnUse">
      <stop stop-color="#77b7ff" stop-opacity=".38"/>
      <stop offset=".52" stop-color="#70e6a0" stop-opacity=".16"/>
      <stop offset="1" stop-color="#07100b" stop-opacity="0"/>
    </radialGradient>
    <filter id="shadow" x="-20%" y="-20%" width="140%" height="140%">
      <feDropShadow dx="0" dy="8" stdDeviation="6" flood-color="#000000" flood-opacity=".38"/>
    </filter>
  </defs>
  <rect width="96" height="96" rx="24" fill="#07100b"/>
  <rect width="96" height="96" rx="24" fill="url(#glow)"/>
  <path d="M48 12 76 25.4v20.1c0 20.4-10.8 32.8-28 38.5-17.2-5.7-28-18.1-28-38.5V25.4L48 12Z" fill="url(#gate)" filter="url(#shadow)"/>
  <path d="M29.5 30.3 48 21.5l18.5 8.8v15.3c0 15-6.8 24.1-18.5 28.6-11.7-4.5-18.5-13.6-18.5-28.6V30.3Z" fill="#07100b" opacity=".9"/>
  <path d="M35 40.5h26" stroke="#fff3c9" stroke-linecap="round" stroke-width="6"/>
  <path d="M38 54h20" stroke="#fff3c9" stroke-linecap="round" stroke-width="6"/>
  <path d="M36 40.5v25" stroke="#fff3c9" stroke-linecap="round" stroke-width="6"/>
  <path d="M48 40.5v25" stroke="#fff3c9" stroke-linecap="round" stroke-width="6"/>
  <path d="M60 40.5v25" stroke="#fff3c9" stroke-linecap="round" stroke-width="6"/>
  <path d="M33.5 67.8c6.3 5.8 14.9 9.4 14.9 9.4s11.9-4.7 18.1-13.8" fill="none" stroke="#70e6a0" stroke-linecap="round" stroke-width="5"/>
  <path d="M63.4 23.7 70.8 27.2v14.2" fill="none" opacity=".44" stroke="#07100b" stroke-linecap="round" stroke-width="3"/>
</svg>
